# xmcd
#
# Track frame offsets:
#	183
#	16275
#	36498
#	52313
#	68803
#	87198
#	105183
#	122053
#	141708
#	157318
#	170285
#
# Disc length: 2538 seconds
#
# Revision: 0
# Processed by: cddbd v1.5.2PL0 Copyright (c) Steve Scherf et al.
# Submitted via: audiograbber 1.83.01
#
DISCID=9d09e80b
DTITLE=Huey Lewis and The News - Fore!
DYEAR=1986
DGENRE=Rock
TTITLE0=Jacob's Ladder
TTITLE1=Stuck With You
TTITLE2=Whole Lotta Lovin'
TTITLE3=Doin' It (All For My Baby)
TTITLE4=Hip To Be Square
TTITLE5=I Know What I Like
TTITLE6=I Never Walk Alone
TTITLE7=The Power Of Love
TTITLE8=Forest For The Trees
TTITLE9=Naturally
TTITLE10=Simple As That
EXTD=
EXTT0=
EXTT1=
EXTT2=
EXTT3=
EXTT4=
EXTT5=
EXTT6=
EXTT7=
EXTT8=
EXTT9=
EXTT10=
PLAYORDER=
